<?xml version="1.0" standalone="no"?><!DOCTYPE svg PUBLIC "-//W3C//DTD SVG 1.1//EN" "http://www.w3.org/Graphics/SVG/1.1/DTD/svg11.dtd"><svg t="1680053774326" class="icon" viewBox="0 0 1024 1024" version="1.1" xmlns="http://www.w3.org/2000/svg" p-id="8209" xmlns:xlink="http://www.w3.org/1999/xlink" width="200" height="200"><path d="M918.08 587.008c23.616-94.336-2.368-155.904-2.368-155.904l-90.24-4.416a328.064 328.064 0 0 0-34.176-79.744l60.864-69.12c-49.984-83.328-111.872-108.48-111.872-108.48l-67.008 60.736a328 328 0 0 0-80.512-33.408l-5.76-90.752c-94.336-23.616-155.904 2.368-155.904 2.368L426.88 195.52c-28.16 7.04-54.912 17.536-79.68 31.296l-63.424-57.472s-61.888 25.152-111.872 108.544c15.872 18.048 47.168 38.784 49.024 65.28 0.448 6.592-30.08 83.84-31.36 83.968l-81.28 3.968s-25.92 61.568-2.304 155.904l80.448 5.12c7.616 32 19.84 62.08 35.904 89.728l-52.928 58.432s25.152 61.888 108.544 111.872l60.352-53.12c27.392 16.32 57.216 28.8 88.96 36.736l3.904 80s61.568 25.92 155.904 2.304l5.312-83.392a328.064 328.064 0 0 0 89.792-38.912l64 56.384c83.392-49.984 108.544-111.872 108.544-111.872l-58.24-64.32c14.336-25.792 25.088-53.76 32.128-83.328l89.6-5.632zM512 705.792a193.792 193.792 0 1 1 0-387.584 193.792 193.792 0 0 1 0 387.584z" fill="#000000" p-id="8210"></path></svg>