<svg width="24.000000" height="24.000000" viewBox="0 0 24 24"  xmlns="http://www.w3.org/2000/svg" xmlns:xlink="http://www.w3.org/1999/xlink">
	<path fill="rgb(var(--primary-6))" d="M12.7126 2.00014L11.2845 2.00014L11.2845 3.87196C10.4543 3.94247 9.64923 4.13955 8.86932 4.4632C7.86932 4.87814 6.9873 5.46932 6.22321 6.23674C5.45667 7.00163 4.86627 7.88448 4.45197 8.88528C4.13025 9.66237 3.93384 10.4643 3.86273 11.2912L2 11.2912L2 12.7206L3.86176 12.7206C3.93207 13.5514 4.12878 14.3571 4.45197 15.1377C4.86627 16.1385 5.45667 17.0213 6.22321 17.7862C6.98743 18.5534 7.86951 19.1443 8.86945 19.559C9.64941 19.8824 10.4544 20.0793 11.2845 20.1497L11.2845 22.0001L12.7126 22.0001L12.7126 20.1486C13.5393 20.0773 14.3416 19.8805 15.1181 19.5583C16.118 19.1434 17.0001 18.5522 17.7642 17.7848C18.5307 17.0199 19.1211 16.137 19.5355 15.1362C19.8573 14.3588 20.0538 13.5564 20.1248 12.7291L22 12.7291L22 11.2997L20.1254 11.2997C20.0549 10.4693 19.858 9.66393 19.5348 8.88368C19.1202 7.88287 18.5295 7.00008 17.7628 6.23531C16.9985 5.46815 16.1165 4.87723 15.1165 4.46254C14.3401 4.14054 13.5388 3.94396 12.7126 3.8728L12.7126 2.00014ZM11.2845 5.30867L11.2845 7.71483L12.7126 7.71483L12.7126 5.31053C12.9113 5.33243 13.1091 5.36319 13.306 5.40254C13.7394 5.48917 14.1602 5.61723 14.5684 5.78669C14.9767 5.95616 15.3645 6.1638 15.7319 6.40961C16.0994 6.65543 16.4393 6.93472 16.7519 7.24746C17.0645 7.5602 17.3436 7.90042 17.5892 8.26811C17.8349 8.6358 18.0425 9.02392 18.2119 9.43246C18.3813 9.84101 18.5093 10.2622 18.5959 10.6959C18.636 10.8963 18.6668 11.0975 18.6885 11.2997L16.2874 11.2997L16.2874 12.7291L18.6877 12.7291C18.6661 12.9284 18.6356 13.1268 18.5962 13.3244C18.5096 13.7582 18.3817 14.1794 18.2123 14.5881C18.0429 14.9967 17.8354 15.3849 17.5897 15.7527C17.3441 16.1204 17.0649 16.4607 16.7524 16.7735C16.4398 17.0864 16.0999 17.3657 15.7324 17.6116C15.3649 17.8575 14.9771 18.0652 14.5688 18.2347C14.1605 18.4042 13.7396 18.5323 13.3062 18.6189C13.1092 18.6583 12.9114 18.6888 12.7126 18.7104L12.7126 16.2826L11.2845 16.2826L11.2845 18.7114C11.0821 18.6897 10.8806 18.6588 10.68 18.6187C10.2466 18.532 9.82581 18.4038 9.4176 18.2343C9.0094 18.0647 8.62164 17.857 8.25427 17.6111C7.8869 17.3652 7.54694 17.0858 7.2345 16.773C6.922 16.4602 6.64294 16.1199 6.39734 15.7522C6.15173 15.3845 5.94427 14.9963 5.77496 14.5877C5.60565 14.1791 5.47772 13.758 5.39117 13.3242C5.3512 13.1239 5.32037 12.9227 5.29877 12.7206L7.71265 12.7206L7.71265 11.2912L5.29968 11.2912C5.32123 11.0918 5.35175 10.8934 5.39117 10.6959C5.47772 10.2621 5.60565 9.84093 5.77496 9.43236C5.94427 9.02377 6.15173 8.63561 6.39734 8.26787C6.64294 7.90012 6.922 7.55985 7.2345 7.24704C7.54694 6.93423 7.8869 6.65488 8.25427 6.40898C8.62164 6.16309 9.0094 5.95536 9.4176 5.7858C9.82581 5.61625 10.2466 5.48811 10.68 5.4014C10.8806 5.36126 11.0821 5.33035 11.2845 5.30867ZM10.5723 12.0101C10.5661 12.2033 10.5979 12.39 10.6675 12.5703C10.7372 12.7505 10.8392 12.9101 10.9736 13.0489C11.108 13.1877 11.264 13.2948 11.4419 13.3702C11.6197 13.4455 11.8052 13.4832 11.9983 13.4832C12.1913 13.4832 12.3768 13.4455 12.5547 13.3702C12.7325 13.2948 12.8885 13.1877 13.0229 13.0489C13.1573 12.9101 13.2593 12.7505 13.329 12.5703C13.3986 12.39 13.4304 12.2033 13.4243 12.0101C13.4184 11.8247 13.378 11.6473 13.303 11.4777C13.2281 11.3081 13.1241 11.1587 12.991 11.0297C12.858 10.9007 12.7056 10.8013 12.5338 10.7317C12.3621 10.6621 12.1835 10.6273 11.9983 10.6273C11.813 10.6273 11.6345 10.6621 11.4627 10.7317C11.291 10.8013 11.1385 10.9007 11.0055 11.0297C10.8724 11.1587 10.7684 11.3081 10.6935 11.4777C10.6185 11.6473 10.5781 11.8247 10.5723 12.0101Z"/>
</svg>
