<svg width="300.000000" height="200.000000" viewBox="0 0 300 200" fill="none" xmlns="http://www.w3.org/2000/svg" xmlns:xlink="http://www.w3.org/1999/xlink">
	<desc>
			Created with Pixso.
	</desc>
	<defs>
		<clipPath id="clip426_6444">
			<rect id="free_mob" width="300.000000" height="200.000000" fill="white"/>
		</clipPath>
	</defs>
	<g clip-path="url(#clip426_6444)">
		<rect id="矩形 27" x="36.975830" y="35.690002" width="236.383911" height="132.399139" fill="#FFFFFF"/>
		<path id="path" d="M225 0C226.227 0 227.454 0.0301208 228.68 0.0903473C229.906 0.150574 231.13 0.240829 232.351 0.361145C233.573 0.481461 234.791 0.631653 236.005 0.811768C237.219 0.991867 238.428 1.20164 239.632 1.4411C240.836 1.68056 242.033 1.94942 243.224 2.24765C244.414 2.5459 245.597 2.87317 246.771 3.22948C247.946 3.58578 249.111 3.97069 250.267 4.3842C251.422 4.7977 252.567 5.23932 253.701 5.70903C254.835 6.17876 255.957 6.67601 257.067 7.20081C258.176 7.7256 259.272 8.2773 260.355 8.85591C261.437 9.43451 262.505 10.0393 263.558 10.6703C264.61 11.3014 265.647 11.9579 266.668 12.6398C267.688 13.3217 268.692 14.0283 269.677 14.7594C270.663 15.4906 271.631 16.2455 272.579 17.0242C273.528 17.8029 274.457 18.6044 275.367 19.4287C276.276 20.253 277.165 21.0991 278.033 21.967C278.901 22.8349 279.747 23.7236 280.571 24.6331C281.396 25.5425 282.197 26.4717 282.976 27.4205C283.754 28.3693 284.509 29.3367 285.24 30.3226C285.972 31.3084 286.678 32.3117 287.36 33.3322C288.042 34.3528 288.699 35.3895 289.33 36.4423C289.961 37.4951 290.565 38.5627 291.144 39.6452C291.723 40.7277 292.274 41.8238 292.799 42.9334C293.324 44.043 293.821 45.1647 294.291 46.2987C294.761 47.4327 295.202 48.5776 295.616 49.7333C296.029 50.8889 296.414 52.0541 296.771 53.2286C297.127 54.4032 297.454 55.5858 297.752 56.7765C298.051 57.9671 298.319 59.1644 298.559 60.3682C298.798 61.5721 299.008 62.7811 299.188 63.9952C299.368 65.2094 299.519 66.4272 299.639 67.6487C299.759 68.8702 299.849 70.094 299.91 71.3199C299.97 72.5459 300 73.7726 300 75L300 125C300 126.227 299.97 127.454 299.91 128.68C299.849 129.906 299.759 131.13 299.639 132.351C299.519 133.573 299.368 134.791 299.188 136.005C299.008 137.219 298.798 138.428 298.559 139.632C298.319 140.836 298.051 142.033 297.752 143.224C297.454 144.414 297.127 145.597 296.771 146.771C296.414 147.946 296.029 149.111 295.616 150.267C295.202 151.422 294.761 152.567 294.291 153.701C293.821 154.835 293.324 155.957 292.799 157.067C292.274 158.176 291.723 159.272 291.144 160.355C290.565 161.437 289.961 162.505 289.33 163.558C288.699 164.611 288.042 165.647 287.36 166.668C286.678 167.688 285.972 168.692 285.24 169.677C284.509 170.663 283.754 171.631 282.976 172.579C282.197 173.528 281.396 174.457 280.571 175.367C279.747 176.276 278.901 177.165 278.033 178.033C277.165 178.901 276.276 179.747 275.367 180.571C274.458 181.396 273.528 182.197 272.579 182.976C271.631 183.754 270.663 184.509 269.677 185.241C268.692 185.972 267.688 186.678 266.668 187.36C265.647 188.042 264.61 188.699 263.558 189.33C262.505 189.961 261.437 190.565 260.355 191.144C259.272 191.723 258.176 192.274 257.067 192.799C255.957 193.324 254.835 193.821 253.701 194.291C252.567 194.761 251.422 195.202 250.267 195.616C249.111 196.029 247.946 196.414 246.771 196.771C245.597 197.127 244.414 197.454 243.224 197.752C242.033 198.051 240.836 198.319 239.632 198.559C238.428 198.798 237.219 199.008 236.005 199.188C234.791 199.368 233.573 199.519 232.351 199.639C231.13 199.759 229.906 199.849 228.68 199.91C227.454 199.97 226.227 200 225 200L0 200L0 75C0 73.7726 0.0301514 72.5459 0.090332 71.3199C0.150513 70.094 0.240845 68.8702 0.361206 67.6487C0.481445 66.4272 0.631714 65.2094 0.811768 63.9952C0.991821 62.7811 1.20166 61.5721 1.44116 60.3682C1.68054 59.1644 1.94946 57.9671 2.24768 56.7765C2.5459 55.5858 2.87317 54.4032 3.22949 53.2287C3.58582 52.0541 3.9707 50.8889 4.38416 49.7333C4.79773 48.5776 5.23926 47.4327 5.70898 46.2987C6.17871 45.1647 6.67603 44.043 7.20081 42.9334C7.72559 41.8238 8.27734 40.7278 8.85596 39.6452C9.43457 38.5627 10.0393 37.4951 10.6704 36.4423C11.3014 35.3895 11.9579 34.3528 12.6398 33.3322C13.3217 32.3117 14.0282 31.3084 14.7594 30.3226C15.4906 29.3367 16.2456 28.3693 17.0242 27.4205C17.8029 26.4717 18.6044 25.5425 19.4287 24.6331C20.2529 23.7236 21.0991 22.8349 21.967 21.967C22.835 21.0991 23.7236 20.253 24.6331 19.4287C25.5426 18.6044 26.4717 17.8029 27.4205 17.0242C28.3694 16.2455 29.3367 15.4906 30.3225 14.7594C31.3085 14.0283 32.3116 13.3217 33.3323 12.6398C34.3528 11.9579 35.3895 11.3014 36.4423 10.6703C37.4951 10.0393 38.5627 9.43451 39.6453 8.85591C40.7278 8.2773 41.8237 7.7256 42.9333 7.20081C44.043 6.67601 45.1648 6.17876 46.2987 5.70903C47.4327 5.23932 48.5776 4.7977 49.7333 4.3842C50.8889 3.97069 52.0541 3.58578 53.2286 3.22948C54.4032 2.87317 55.5858 2.5459 56.7765 2.24765C57.9672 1.94942 59.1644 1.68056 60.3683 1.4411C61.572 1.20164 62.7811 0.991867 63.9952 0.811768C65.2094 0.631653 66.4272 0.481461 67.6487 0.361145C68.8702 0.240829 70.094 0.150574 71.3199 0.0903473C72.5459 0.0301208 73.7726 0 75 0L225 0ZM157.988 84.0125C153.794 83.9586 149.765 84.7461 145.9 86.375C142.327 87.895 139.194 90.0533 136.5 92.85C133.875 95.575 131.85 98.825 130.425 102.575C129 106.325 128.287 110.375 128.287 114.725C128.287 119.225 128.988 123.35 130.375 127.1C131.75 130.85 133.725 134.075 136.275 136.775C138.825 139.475 141.938 141.562 145.613 143.025C149.287 144.487 153.412 145.213 157.988 145.213C164.588 145.213 170.213 143.713 174.863 140.713C179.512 137.713 182.963 132.725 185.213 125.75L171.15 125.75C170.625 127.55 169.2 129.25 166.875 130.875C165.646 131.7 164.322 132.318 162.9 132.73C161.479 133.141 160.029 133.327 158.55 133.288C154.05 133.288 150.6 132.125 148.2 129.8C145.8 127.475 144.488 123.725 144.262 118.55L186.225 118.55C186.541 114.177 186.166 109.865 185.1 105.613C184.111 101.603 182.402 97.9283 179.975 94.5875C177.567 91.303 174.55 88.7322 170.925 86.875C166.848 84.8565 162.536 83.9023 157.988 84.0125ZM222.562 84.0125C218.365 83.9568 214.331 84.7444 210.463 86.375C206.894 87.8964 203.765 90.0547 201.075 92.85C198.45 95.575 196.425 98.825 195 102.575C193.575 106.325 192.863 110.375 192.863 114.725C192.863 119.225 193.562 123.35 194.938 127.1C196.325 130.85 198.3 134.075 200.85 136.775C203.4 139.475 206.512 141.562 210.188 143.025C213.863 144.487 217.988 145.213 222.562 145.213C229.162 145.213 234.787 143.713 239.438 140.713C244.088 137.713 247.537 132.725 249.787 125.75L235.725 125.75C235.2 127.55 233.775 129.25 231.45 130.875C230.221 131.7 228.896 132.318 227.475 132.73C226.054 133.141 224.604 133.327 223.125 133.288C218.625 133.288 215.175 132.125 212.775 129.8C210.375 127.475 209.062 123.725 208.838 118.55L250.8 118.55C251.116 114.177 250.741 109.865 249.675 105.613C248.686 101.603 246.977 97.9283 244.55 94.5875C242.141 91.303 239.125 88.7322 235.5 86.875C231.423 84.8565 227.11 83.9023 222.562 84.0125ZM74.85 63.425C68.325 63.425 63.45 65.075 60.225 68.375C57 71.675 55.3875 75.9125 55.3875 81.0875L55.3875 85.5875L45.825 85.5875L45.825 96.275L55.3875 96.275L55.3875 143.75L71.3625 143.75L71.3625 96.275L82.3875 96.275L82.3875 85.5875L71.3625 85.5875L71.3625 82.1C71.3625 79.7 71.8375 77.9875 72.775 76.975C73.7 75.975 75.2625 75.4625 77.4375 75.4625C79.4625 75.4625 81.4125 75.575 83.2875 75.8L83.2875 63.875C81.8989 63.7995 80.5115 63.7078 79.125 63.6C77.7023 63.4855 76.2773 63.4272 74.85 63.425ZM123.338 84.0125C121.312 84.0125 119.363 84.3125 117.488 84.9125C115.613 85.5125 113.85 86.35 112.2 87.4375C110.545 88.5262 109.084 89.8331 107.819 91.358C106.554 92.883 105.539 94.5595 104.775 96.3875L104.55 96.3875L104.55 85.5875L89.3625 85.5875L89.3625 143.75L105.338 143.75L105.338 117.538C105.338 114.913 105.6 112.475 106.125 110.225C106.65 107.975 107.525 106 108.762 104.312C110.012 102.625 111.637 101.3 113.662 100.325C115.688 99.35 118.162 98.8625 121.088 98.8625C123.018 98.8696 124.93 99.0571 126.825 99.425L126.825 84.575C125.689 84.2211 124.527 84.0336 123.338 84.0125ZM157.537 96.05C161.438 96.05 164.35 97.1 166.25 99.2C168.162 101.3 169.5 104.375 170.25 108.425L144.262 108.425C144.338 107.3 144.575 106.025 145 104.6C145.473 103.009 146.248 101.582 147.326 100.319C148.403 99.0568 149.69 98.067 151.188 97.35C152.862 96.475 154.988 96.05 157.537 96.05ZM222.113 96.05C226.012 96.05 228.925 97.1 230.838 99.2C232.738 101.3 234.075 104.375 234.825 108.425L208.838 108.425C208.912 107.3 209.162 106.025 209.562 104.6C210.035 103.009 210.811 101.582 211.888 100.319C212.966 99.0568 214.253 98.067 215.75 97.35C217.438 96.475 219.562 96.05 222.113 96.05Z" fill-rule="nonzero" fill="#3CA860"/>
	</g>
</svg>
